<svg xmlns="http://www.w3.org/2000/svg" viewBox="0 0 32 32" width="32" height="32">
  <defs>
    <linearGradient id="ballGradient" x1="0%" y1="0%" x2="100%" y2="100%">
      <stop offset="0%" style="stop-color:#3b82f6;stop-opacity:1" />
      <stop offset="50%" style="stop-color:#06b6d4;stop-opacity:1" />
      <stop offset="100%" style="stop-color:#0891b2;stop-opacity:1" />
    </linearGradient>
  </defs>
  
  <!-- Ball background -->
  <circle cx="16" cy="16" r="15" fill="url(#ballGradient)" stroke="#1e40af" stroke-width="1"/>
  
  <!-- Pentagon in center -->
  <polygon points="16,6 20,10 18,15 14,15 12,10" fill="#ffffff" opacity="0.9"/>
  
  <!-- Hexagons around -->
  <polygon points="12,10 8,12 8,16 12,18 16,16 16,12" fill="#ffffff" opacity="0.7"/>
  <polygon points="20,10 24,12 24,16 20,18 16,16 16,12" fill="#ffffff" opacity="0.7"/>
  <polygon points="14,15 10,17 12,22 16,22 18,17" fill="#ffffff" opacity="0.7"/>
  <polygon points="18,15 22,17 20,22 16,22 14,17" fill="#ffffff" opacity="0.7"/>
  
  <!-- Additional small hexagons -->
  <polygon points="8,16 6,20 8,24 12,22 12,18" fill="#ffffff" opacity="0.5"/>
  <polygon points="24,16 26,20 24,24 20,22 20,18" fill="#ffffff" opacity="0.5"/>
</svg>